<svg xmlns="http://www.w3.org/2000/svg" width="128" height="128" viewBox="0 0 128 128"><g fill="#333"><path d="M56.917,93.752c-3-5.784-4.655-15.193-5.481-25.158a22.29,22.29,0,0,0-10.212,2.44C39.5,80.162,38.37,101,32.063,97.376,22.077,91.73,26.206,77.445,37.019,70.2c3.529-15.262,8.635-34.218,14.266-43.765a.983.983,0,0,1,1.2-.348c1.127.488,7.584-.488,7.435,6.69-.076,5.366.149,20.837,1.2,34.775A29.669,29.669,0,0,1,63.9,68.664c1.876.906,1.275,3.206-.827,2.23l-1.8-.627c.827,9.826,2.1,18.4,3.905,21.325C69.307,98.352,59.1,98,56.917,93.752ZM36.042,74.8c-5.706,5.437-7.808,13.172-5.631,17.145,1.352,2.508,1.577,2.3,2.1-.419C33.115,88.665,34.316,82.463,36.042,74.8Zm15.169-8.989c-.752-10.244-.752-20.768-.526-28.364A235.735,235.735,0,0,0,41.9,67.618,25.33,25.33,0,0,1,51.211,65.807Z"/><path d="M107.756,76.469c-2.928,7.178-9.612,23.9-17.8,19.3-1.8-1.045-3.379-3.275-4.28-7.039-2.253,2.927-6.232,6.272-10.137,5.227-11.488-3-7.433-23.625,1.2-31.778,5.107-4.878,10.738-4.53,12.541,3.9a1.279,1.279,0,1,1-2.479.627,9.867,9.867,0,0,0-.751-2.649c-2.253-4.739-10.887,12.614-8.935,24.6.826,5.3,5.858.348,8.034-2.857-.526-4.949.3-11.569,1.127-16.656,0-.209.225-.349.451-.349,1.426.209,6.381,1.045,6.081,3.833-.75,5.646.526,15.193.9,18.12,1.127,7.6,8.56-7.735,11.562-15.122C106.18,73.82,108.807,74.03,107.756,76.469Z"/></g></svg>