<svg xmlns="http://www.w3.org/2000/svg" width="128" height="128" viewBox="0 0 128 128"><g fill="none" stroke="#000" stroke-linecap="round" stroke-linejoin="round" stroke-width="6"><path d="M75.813,101.315V87.9"/><path d="M31.411,73.1v4.933"/><path d="M75.813,73.1v4.933"/><path d="M75.813,58.3v4.934"/><path d="M31.411,87.9V99.98"/><path d="M31.411,63.235A4.934,4.934,0,0,1,36.345,58.3"/><path d="M51.145,58.3H46.212"/><path d="M104.921,62.413a2.591,2.591,0,0,0-2.1-4.108H66.048a9.866,9.866,0,0,0-8,4.091l-26.144,36.2a2.591,2.591,0,0,0,2.1,4.108H70.768a9.868,9.868,0,0,0,8-4.092Z"/><path d="M84.657,38.567H46.212"/><path d="M75.813,48.434l8.124-8.124a2.464,2.464,0,0,0,0-3.484l0,0L75.813,28.7"/></g></svg>