<svg xmlns="http://www.w3.org/2000/svg" width="128" height="128" viewBox="0 0 128 128"><path d="M48.052,97.246l2.852-2.51a1.838,1.838,0,0,0,.685-1.483A2.046,2.046,0,0,0,49.535,91.2a1.887,1.887,0,0,0-1.369.571l-6.731,6.047a1.948,1.948,0,0,0,0,2.966l6.731,6.047a1.887,1.887,0,0,0,1.369.571,2.046,2.046,0,0,0,2.054-2.054,1.837,1.837,0,0,0-.685-1.483l-2.852-2.51h36.4l-2.852,2.51a1.837,1.837,0,0,0-.685,1.483,2.046,2.046,0,0,0,2.054,2.054,1.887,1.887,0,0,0,1.369-.571l6.731-6.047a1.948,1.948,0,0,0,0-2.966L84.334,91.77a1.887,1.887,0,0,0-1.369-.571,2.046,2.046,0,0,0-2.054,2.054,1.838,1.838,0,0,0,.685,1.483l2.852,2.51Z" fill="#333"/><g fill="#333"><path d="M25.285,42.782V40.015a1.141,1.141,0,0,1,1.141-1.142H45a1.141,1.141,0,0,1,1.141,1.142v2.7a1.141,1.141,0,0,1-.942,1.124l-2.373.42a1.142,1.142,0,0,0-.892,1.46L48.963,68.5l1.054,4.067.787-4.01a1.1,1.1,0,0,1,.028-.113L57.74,45.758a1.142,1.142,0,0,0-.877-1.453l-2.358-.452a1.143,1.143,0,0,1-.927-1.121V40.015a1.142,1.142,0,0,1,1.142-1.142H68.194a1.141,1.141,0,0,1,1.141,1.142v2.744a1.142,1.142,0,0,1-.894,1.114l-2.27.5a1.144,1.144,0,0,0-.833.745L52.9,81.469a1.142,1.142,0,0,1-1.08.771h-8a1.141,1.141,0,0,1-1.067-.735L28.888,45.074a1.145,1.145,0,0,0-.792-.7l-1.945-.482A1.141,1.141,0,0,1,25.285,42.782Z"/><path d="M62.915,76.6,74.906,39.662a1.14,1.14,0,0,1,1.085-.789H86.928a1.142,1.142,0,0,1,1.085.789l12.02,36.968a1.139,1.139,0,0,0,.846.763l1.5.323a1.142,1.142,0,0,1,.9,1.116V81.1a1.141,1.141,0,0,1-1.141,1.141H84.567A1.141,1.141,0,0,1,83.426,81.1V78.87a1.142,1.142,0,0,1,.946-1.125l1.613-.279a1.141,1.141,0,0,0,.908-1.419l-1.1-4.13a1.142,1.142,0,0,0-1.1-.846H74.028a1.14,1.14,0,0,0-1.106.862l-1.061,4.2a1.141,1.141,0,0,0,.973,1.412l2.034.241a1.141,1.141,0,0,1,1.007,1.133V81.1a1.141,1.141,0,0,1-1.142,1.141h-14.1A1.142,1.142,0,0,1,59.5,81.122l-.045-2.266a1.142,1.142,0,0,1,.908-1.14l1.7-.354A1.143,1.143,0,0,0,62.915,76.6ZM83.9,64.706,79.876,49.7q-.012-.048-.021-.1l-.618-3.486-.678,3.5c0,.022-.009.043-.014.064L74.725,64.72a1.141,1.141,0,0,0,1.106,1.422h6.962A1.141,1.141,0,0,0,83.9,64.706Z"/></g></svg>