<svg xmlns="http://www.w3.org/2000/svg" width="128" height="128" viewBox="0 0 128 128"><g fill="none" stroke="#333" stroke-linecap="round" stroke-linejoin="round" stroke-width="7"><path d="M63.012,27.651a5.931,5.931,0,0,0-8.387,0l-33.55,33.56a17.781,17.781,0,0,0-.012,25.147l.012.012,16.773,16.777A17.782,17.782,0,0,0,63,103.164l.017-.017L90.271,75.888l12.74-1.418a2.965,2.965,0,0,0,1.769-5.041Z"/><path d="M103.972,90.325l-7.949,15.9a8.883,8.883,0,0,0,1.668,10.256h0a8.876,8.876,0,0,0,12.553.014l.015-.014h0a8.884,8.884,0,0,0,1.663-10.256Z"/><path d="M29.956,52.315V25.445A14.418,14.418,0,0,1,44.374,11.027h0A14.418,14.418,0,0,1,58.792,25.445V65.094"/></g></svg>